<svg width="122" height="30" viewBox="0 0 122 30" fill="none" xmlns="http://www.w3.org/2000/svg">
<path d="M0.788464 20.5878C0.688464 20.8628 0.824472 20.9208 0.856472 20.9688C2.51395 22.1604 4.51583 22.7767 6.55647 22.7238C9.83847 22.7238 11.8755 20.8908 11.8755 17.9378V17.8808C11.8755 15.1518 9.57546 14.1598 7.41746 13.4448L7.13746 13.3448C5.51046 12.7898 4.10647 12.3108 4.10647 11.1858V11.1258C4.10647 10.1628 4.92647 9.45484 6.19847 9.45484C7.65823 9.48884 9.08842 9.87328 10.3685 10.5758C10.3685 10.5758 10.6855 10.7918 10.8015 10.4678C10.8655 10.2958 11.4125 8.74881 11.4695 8.58081C11.4925 8.50764 11.4892 8.42869 11.4599 8.35776C11.4307 8.28683 11.3774 8.22844 11.3095 8.19281C9.89562 7.32455 8.26863 6.86554 6.60946 6.86682H6.28146C3.28146 6.86682 1.18147 8.77282 1.18147 11.5048V11.5618C1.18147 14.4418 3.49447 15.3758 5.66247 16.0268L6.01147 16.1388C7.59047 16.6488 8.95147 17.0868 8.95147 18.2558V18.3138C8.95147 19.3818 8.06747 20.1758 6.64047 20.1758C5.13457 20.1855 3.66087 19.7401 2.41247 18.8978C2.18247 18.7568 2.04746 18.6538 1.87046 18.5408C1.836 18.508 1.79306 18.4854 1.74646 18.4756C1.69985 18.4658 1.65143 18.4691 1.60666 18.4854C1.56188 18.5016 1.52251 18.5299 1.49298 18.5673C1.46344 18.6046 1.44491 18.6495 1.43946 18.6968L0.788464 20.5878ZM48.8315 20.5878C48.7315 20.8628 48.8675 20.9208 48.8995 20.9688C50.5569 22.1604 52.5588 22.7767 54.5995 22.7238C57.8815 22.7238 59.9185 20.8908 59.9185 17.9378V17.8808C59.9185 15.1518 57.6185 14.1598 55.4605 13.4448L55.1805 13.3448C53.5535 12.7898 52.1495 12.3108 52.1495 11.1858V11.1258C52.1495 10.1628 52.9695 9.45484 54.2415 9.45484C55.7016 9.48872 57.1321 9.87317 58.4125 10.5758C58.4125 10.5758 58.7295 10.7918 58.8455 10.4678C58.9095 10.2958 59.4565 8.74881 59.5135 8.58081C59.5366 8.50764 59.5332 8.42869 59.5039 8.35776C59.4747 8.28683 59.4214 8.22844 59.3535 8.19281C57.9396 7.32455 56.3126 6.86554 54.6535 6.86682H54.3255C51.3255 6.86682 49.2255 8.77282 49.2255 11.5048V11.5618C49.2255 14.4418 51.5385 15.3758 53.7065 16.0268L54.0555 16.1388C55.6345 16.6488 56.9975 17.0868 56.9975 18.2558V18.3138C56.9975 19.3818 56.1115 20.1758 54.6845 20.1758C53.1789 20.1853 51.7056 19.7399 50.4575 18.8978C50.2275 18.7568 50.0905 18.6578 49.9175 18.5408C49.881 18.5134 49.8382 18.4954 49.7931 18.4886C49.7479 18.4817 49.7018 18.4863 49.6588 18.5017C49.6158 18.5172 49.5774 18.5432 49.5469 18.5772C49.5165 18.6113 49.495 18.6524 49.4845 18.6968L48.8315 20.5878ZM81.6315 14.8058C81.7051 16.1661 81.4005 17.5201 80.7515 18.7178C80.4736 19.1668 80.0785 19.5314 79.6087 19.7723C79.1389 20.0132 78.6122 20.1212 78.0855 20.0848C77.56 20.123 77.0342 20.0156 76.5659 19.7744C76.0975 19.5333 75.7046 19.1677 75.4305 18.7178C74.8602 17.495 74.5648 16.1621 74.5648 14.8128C74.5648 13.4635 74.8602 12.1307 75.4305 10.9078C75.7075 10.4615 76.1013 10.0996 76.5693 9.86112C77.0373 9.62263 77.5616 9.51669 78.0855 9.55481C78.6111 9.51806 79.1369 9.62446 79.6068 9.8627C80.0768 10.1009 80.4734 10.4621 80.7545 10.9078C81.4027 12.1014 81.7064 13.4517 81.6315 14.8078M84.3705 11.7148C84.1257 10.8066 83.7017 9.95662 83.1235 9.21482C82.5581 8.50441 81.8404 7.92996 81.0235 7.53382C80.0981 7.12643 79.0981 6.91605 78.087 6.91605C77.0759 6.91605 76.0759 7.12643 75.1505 7.53382C74.3318 7.92998 73.6122 8.50435 73.0445 9.21482C72.4688 9.95827 72.0451 10.8077 71.7975 11.7148C71.2626 13.7421 71.2626 15.8735 71.7975 17.9008C72.0437 18.8088 72.4683 19.6586 73.0465 20.4008C73.6097 21.1096 74.3281 21.6796 75.1465 22.0668C76.0743 22.465 77.0733 22.6703 78.083 22.6703C79.0926 22.6703 80.0917 22.465 81.0195 22.0668C81.8377 21.6794 82.5561 21.1095 83.1195 20.4008C83.6977 19.659 84.1217 18.809 84.3665 17.9008C84.9044 15.8739 84.9044 13.7417 84.3665 11.7148M106.866 19.6418C106.858 19.6056 106.841 19.5718 106.818 19.5426C106.795 19.5134 106.766 19.4897 106.733 19.473C106.699 19.4564 106.663 19.4472 106.626 19.4461C106.589 19.445 106.552 19.4521 106.517 19.4668C106.108 19.641 105.681 19.7695 105.243 19.8498C104.747 19.9274 104.246 19.9652 103.743 19.9628C103.163 19.9932 102.584 19.8988 102.043 19.6861C101.503 19.4734 101.014 19.1473 100.61 18.7298C99.7412 17.6112 99.3217 16.208 99.4345 14.7958C99.3726 13.4528 99.7408 12.1252 100.485 11.0058C100.835 10.5368 101.296 10.1625 101.827 9.91712C102.358 9.67173 102.942 9.56302 103.525 9.60083C104.508 9.58153 105.486 9.72893 106.419 10.0368C106.419 10.0368 106.636 10.1368 106.738 9.83683C106.977 9.13683 107.155 8.63681 107.41 7.86881C107.423 7.83558 107.428 7.80024 107.426 7.76493C107.424 7.72961 107.415 7.69506 107.399 7.66342C107.383 7.63178 107.361 7.6037 107.334 7.5809C107.307 7.55811 107.275 7.54106 107.241 7.53083C106.648 7.31403 106.036 7.15235 105.413 7.04782C104.733 6.94501 104.046 6.89619 103.357 6.90183C102.306 6.88031 101.264 7.09133 100.303 7.51981C99.4533 7.90951 98.7 8.48256 98.0975 9.19782C97.4928 9.93523 97.0398 10.7848 96.7645 11.6978C96.4601 12.7027 96.3094 13.7479 96.3175 14.7978C96.2117 16.8652 96.8594 18.9008 98.1405 20.5268C98.8258 21.2634 99.667 21.8377 100.603 22.2076C101.538 22.5775 102.545 22.7337 103.548 22.6648C104.875 22.6654 106.191 22.4186 107.427 21.9368C107.486 21.9042 107.529 21.851 107.55 21.7876C107.571 21.7243 107.567 21.6555 107.539 21.5948L106.866 19.6418ZM111.659 13.2098C111.746 12.3993 112.002 11.6158 112.409 10.9098C112.681 10.4557 113.072 10.0842 113.539 9.83524C114.006 9.58629 114.532 9.4693 115.06 9.49683C115.582 9.47087 116.1 9.58898 116.559 9.83823C117.018 10.0875 117.399 10.4582 117.66 10.9098C118.048 11.6157 118.259 12.4047 118.276 13.2098H111.659ZM120.882 11.1728C120.652 10.338 120.247 9.56133 119.695 8.89383C119.213 8.30707 118.614 7.82692 117.936 7.48383C117.1 7.11033 116.194 6.91779 115.278 6.91883C114.224 6.89163 113.177 7.10539 112.217 7.54383C111.386 7.94629 110.656 8.53115 110.082 9.25482C109.5 10.0056 109.073 10.865 108.826 11.7828C108.548 12.7959 108.411 13.8424 108.418 14.8928C108.409 15.9444 108.551 16.9919 108.84 18.0028C109.103 18.916 109.562 19.7607 110.185 20.4778C110.823 21.1954 111.622 21.7516 112.516 22.1008C113.591 22.5062 114.734 22.7004 115.882 22.6728C117.497 22.7594 119.107 22.4237 120.552 21.6988C120.652 21.6388 120.752 21.5338 120.629 21.2318L120.023 19.4478C120.013 19.4128 119.996 19.3803 119.972 19.3525C119.948 19.3247 119.919 19.3022 119.886 19.2863C119.853 19.2705 119.818 19.2617 119.781 19.2606C119.745 19.2595 119.708 19.266 119.674 19.2798C118.477 19.8061 117.175 20.0517 115.868 19.9978C115.29 20.0322 114.71 19.9484 114.165 19.7516C113.619 19.5547 113.12 19.2489 112.696 18.8528C111.947 17.9436 111.562 16.788 111.616 15.6108L120.889 15.6208C120.958 15.6191 121.023 15.5922 121.073 15.5453C121.122 15.4984 121.153 15.4349 121.158 15.3668C121.339 13.9621 121.245 12.5358 120.882 11.1668M37.3925 13.2018C37.4805 12.3915 37.7359 11.6083 38.1425 10.9018C38.4141 10.4478 38.8044 10.0763 39.2713 9.82736C39.7382 9.57841 40.2641 9.46138 40.7925 9.48883C41.3137 9.46355 41.8319 9.58196 42.2904 9.83115C42.7489 10.0803 43.1301 10.4507 43.3925 10.9018C43.7779 11.6084 43.9881 12.3971 44.0055 13.2018H37.3925ZM46.6135 11.1648C46.3834 10.3302 45.9796 9.55352 45.4285 8.88584C44.9461 8.29909 44.3471 7.81895 43.6695 7.47583C42.8335 7.10247 41.928 6.90993 41.0125 6.91083C39.9579 6.88385 38.9111 7.09759 37.9515 7.53583C37.1201 7.93818 36.3903 8.52305 35.8165 9.24683C35.2339 9.99761 34.8069 10.857 34.5605 11.7748C34.2836 12.7881 34.1463 13.8344 34.1525 14.8848C34.1425 15.9364 34.2846 16.9839 34.5745 17.9948C34.837 18.908 35.2961 19.7527 35.9195 20.4698C36.5574 21.1873 37.3562 21.7435 38.2505 22.0928C39.3253 22.4981 40.4681 22.6923 41.6165 22.6648C43.2313 22.7514 44.8408 22.4157 46.2865 21.6908C46.3865 21.6308 46.4865 21.5258 46.3645 21.2238L45.7645 19.4398C45.7538 19.4048 45.736 19.3724 45.7121 19.3447C45.6883 19.3169 45.6589 19.2944 45.6259 19.2786C45.5929 19.2628 45.557 19.2541 45.5204 19.2529C45.4838 19.2517 45.4474 19.2582 45.4135 19.2718C44.2155 19.7985 42.9129 20.0441 41.6055 19.9898C41.027 20.024 40.4477 19.9402 39.9027 19.7433C39.3577 19.5465 38.8585 19.2408 38.4355 18.8448C37.6857 17.9356 37.3007 16.7801 37.3555 15.6028L46.6285 15.6128C46.6967 15.6111 46.7619 15.5842 46.8116 15.5373C46.8612 15.4904 46.8918 15.4269 46.8975 15.3588C47.0768 13.954 46.9821 12.5276 46.6185 11.1588M17.3545 19.5748C17.1382 19.4212 16.9558 19.2248 16.8185 18.9978C16.6145 18.6079 16.5191 18.1703 16.5425 17.7308C16.5136 17.3724 16.574 17.0125 16.7184 16.6832C16.8627 16.3539 17.0864 16.0655 17.3695 15.8438C18.1541 15.2983 19.1074 15.0501 20.0585 15.1438C20.9013 15.1602 21.7421 15.2354 22.5745 15.3688V19.8018C21.7503 19.9764 20.9149 20.093 20.0745 20.1508C19.1292 20.2906 18.165 20.0885 17.3555 19.5808M21.0455 12.7358C20.6695 12.7068 20.1815 12.6898 19.5985 12.6898C18.8269 12.6873 18.0586 12.7913 17.3155 12.9988C16.6168 13.1901 15.96 13.5099 15.3785 13.9418C14.8138 14.3676 14.3541 14.917 14.0345 15.5478C13.6933 16.2465 13.5236 17.0165 13.5395 17.7938C13.5193 18.557 13.6639 19.3156 13.9635 20.0178C14.2343 20.6179 14.6501 21.1413 15.1735 21.5408C15.7353 21.9578 16.3791 22.2509 17.0625 22.4008C17.8674 22.584 18.691 22.6722 19.5165 22.6638C20.4609 22.6649 21.4036 22.5823 22.3335 22.4168C23.2425 22.2538 24.3595 22.0168 24.6695 21.9428C24.8868 21.8881 25.1035 21.8298 25.3195 21.7678C25.3855 21.7464 25.4423 21.7034 25.4808 21.6457C25.5192 21.588 25.5371 21.519 25.5315 21.4498V12.5408C25.5994 11.7609 25.5034 10.9754 25.2495 10.2348C24.9956 9.49427 24.5896 8.81504 24.0575 8.24082C22.8536 7.26889 21.3257 6.79032 19.7825 6.90183C18.9491 6.91126 18.118 6.99222 17.2985 7.14383C16.2874 7.33783 15.319 7.71028 14.4385 8.24381C14.3821 8.28906 14.3431 8.35246 14.3282 8.42319C14.3132 8.49392 14.3232 8.56761 14.3565 8.63181L15.0125 10.4848C15.0206 10.5157 15.035 10.5445 15.0549 10.5694C15.0747 10.5944 15.0995 10.6149 15.1277 10.6298C15.1559 10.6447 15.1869 10.6535 15.2187 10.6557C15.2505 10.658 15.2825 10.6536 15.3125 10.6428C15.3653 10.6202 15.4164 10.5938 15.4655 10.5638C16.717 9.92384 18.1008 9.58519 19.5065 9.57483C20.32 9.51875 21.1284 9.74052 21.7995 10.2038C22.3055 10.6108 22.5625 11.2258 22.5625 12.5238V12.9358C21.7625 12.8158 21.0335 12.7468 21.0335 12.7468M95.8255 7.72681C95.8394 7.69471 95.8468 7.66019 95.8473 7.62522C95.8479 7.59024 95.8415 7.55549 95.8286 7.52298C95.8157 7.49047 95.7965 7.46084 95.7721 7.43576C95.7477 7.41068 95.7186 7.39066 95.6865 7.37683C95.1794 7.2306 94.6587 7.13677 94.1325 7.09683C93.3138 7.00505 92.4857 7.14357 91.7415 7.49683C91.13 7.77157 90.5926 8.18765 90.1735 8.71082V7.52582C90.1766 7.48839 90.1721 7.45071 90.1602 7.41507C90.1483 7.37943 90.1293 7.34658 90.1044 7.31851C90.0794 7.29045 90.049 7.26777 90.0149 7.25183C89.9809 7.2359 89.944 7.22706 89.9065 7.22583H87.5295C87.492 7.22719 87.4552 7.23611 87.4213 7.25211C87.3874 7.2681 87.3571 7.29083 87.3322 7.31888C87.3074 7.34693 87.2884 7.37971 87.2766 7.41529C87.2648 7.45086 87.2603 7.48847 87.2635 7.52582V22.0558C87.2613 22.1331 87.2899 22.2081 87.343 22.2643C87.396 22.3206 87.4692 22.3535 87.5465 22.3558H89.9825C90.0206 22.3545 90.058 22.3457 90.0927 22.33C90.1274 22.3142 90.1587 22.2917 90.1847 22.2639C90.2107 22.236 90.2309 22.2033 90.2443 22.1676C90.2576 22.1319 90.2638 22.0939 90.2625 22.0558V14.7968C90.2407 13.9341 90.3445 13.0727 90.5705 12.2398C90.73 11.7071 91.0072 11.2171 91.3815 10.8058C91.6991 10.4753 92.0924 10.2271 92.5275 10.0828C92.9308 9.96036 93.35 9.89833 93.7715 9.89881C94.1147 9.90726 94.4562 9.95117 94.7905 10.0298C94.9675 10.0518 95.0685 9.93682 95.1275 9.76682C95.2875 9.32182 95.7385 7.98783 95.8275 7.72183" fill="#E63E3A"/>
<path d="M74.1465 0.995689C73.8303 0.900072 73.5088 0.823275 73.1835 0.765693C72.7459 0.69393 72.3029 0.660479 71.8595 0.665703C71.1077 0.621042 70.3546 0.729053 69.6457 0.983238C68.9368 1.23742 68.2867 1.63251 67.7345 2.14469C66.6441 3.38254 65.9603 4.92545 65.7755 6.56469L65.6555 7.22269H63.4435C63.3643 7.22267 63.2878 7.25132 63.228 7.30334C63.1683 7.35536 63.1294 7.42724 63.1185 7.5057L62.7565 9.5337C62.7305 9.7257 62.8145 9.8467 63.0725 9.8467H65.2245L63.0405 22.0377C62.9119 22.8523 62.7165 23.655 62.4565 24.4377C62.3044 24.933 62.0749 25.4011 61.7765 25.8247C61.5599 26.1424 61.2479 26.383 60.8855 26.5117C60.5148 26.6278 60.1279 26.6835 59.7395 26.6767C59.4774 26.6718 59.2164 26.643 58.9595 26.5907C58.7777 26.5553 58.6007 26.4982 58.4325 26.4207C58.3992 26.4074 58.3636 26.4009 58.3277 26.4015C58.2918 26.4022 58.2564 26.41 58.2236 26.4245C58.1908 26.4391 58.1613 26.46 58.1367 26.4862C58.1121 26.5123 58.093 26.5431 58.0805 26.5767C58.0015 26.7847 57.4265 28.3627 57.3575 28.5567C57.3416 28.5922 57.3329 28.6305 57.3318 28.6694C57.3308 28.7083 57.3375 28.747 57.3516 28.7832C57.3656 28.8195 57.3867 28.8526 57.4136 28.8807C57.4406 28.9088 57.4728 28.9312 57.5085 28.9467C57.8002 29.051 58.0977 29.1381 58.3995 29.2077C58.868 29.3103 59.3472 29.3553 59.8265 29.3417C60.6391 29.3548 61.4481 29.2294 62.2185 28.9707C62.9126 28.7068 63.5309 28.2757 64.0185 27.7157C64.5797 27.0793 65.0093 26.338 65.2825 25.5347C65.6674 24.4731 65.9542 23.3786 66.1395 22.2647L68.3395 9.8457H71.5475C71.6272 9.8459 71.7042 9.81709 71.7642 9.76464C71.8242 9.71219 71.8631 9.63969 71.8735 9.56069L72.2375 7.53469C72.2615 7.34069 72.1795 7.2207 71.9195 7.2207H68.8045C68.9146 6.4743 69.0868 5.7384 69.3195 5.0207C69.4686 4.62866 69.7017 4.27402 70.0025 3.9817C70.2306 3.7498 70.5106 3.57565 70.8195 3.4737C71.1583 3.36996 71.5113 3.32001 71.8655 3.32569C72.1341 3.32575 72.4021 3.35223 72.6655 3.4047C72.9655 3.4697 73.0845 3.50469 73.1655 3.5267C73.4835 3.62669 73.5265 3.52669 73.5895 3.37569L74.3345 1.3307C74.3466 1.29661 74.3515 1.26039 74.3489 1.22431C74.3463 1.18823 74.3362 1.15309 74.3193 1.12112C74.3023 1.08915 74.279 1.06105 74.2506 1.0386C74.2222 1.01615 74.1895 0.999835 74.1545 0.9907M30.6345 22.0597C30.6363 22.0976 30.6303 22.1355 30.6171 22.1711C30.6038 22.2067 30.5835 22.2393 30.5574 22.2668C30.5312 22.2944 30.4997 22.3164 30.4649 22.3315C30.43 22.3466 30.3925 22.3545 30.3545 22.3547H27.7625C27.7246 22.3543 27.6873 22.3463 27.6526 22.3312C27.6179 22.316 27.5866 22.294 27.5607 22.2664C27.5347 22.2389 27.5146 22.2064 27.5015 22.1708C27.4884 22.1353 27.4826 22.0975 27.4845 22.0597V1.27369C27.4826 1.23588 27.4884 1.19808 27.5015 1.16256C27.5146 1.12703 27.5347 1.09451 27.5607 1.06696C27.5866 1.03941 27.6179 1.01739 27.6526 1.00222C27.6873 0.987051 27.7246 0.979048 27.7625 0.978691H30.3455C30.3835 0.97892 30.421 0.986817 30.4559 1.00191C30.4907 1.01701 30.5222 1.039 30.5484 1.06655C30.5745 1.0941 30.5948 1.12666 30.6081 1.16225C30.6213 1.19785 30.6273 1.23574 30.6255 1.27369L30.6345 22.0597Z" fill="#E63E3A"/>
</svg>
