<svg width="92" height="46" viewBox="0 0 92 46" fill="none" xmlns="http://www.w3.org/2000/svg">
<path d="M0.633484 0.544922V45.4309H46.4855L91.3665 0.549922H0.633484V0.544922Z" fill="#E63E3A"/>
<path fill-rule="evenodd" clip-rule="evenodd" d="M53.9837 22.5421H52.0217V15.3421H53.9837C56.6027 15.3421 58.6837 16.2081 58.6837 18.8971C58.6837 21.6741 56.5987 22.5441 53.9837 22.5441M32.8667 27.6911C31.8926 27.6943 30.9259 27.5222 30.0127 27.1831L32.8387 18.2371H32.8987L35.6657 27.2071C34.7672 27.5284 33.821 27.6921 32.8667 27.6911ZM53.4587 9.49111H44.5567V30.7531L36.7707 9.48911H29.0567L22.4067 27.2671C21.7067 22.7861 17.0797 21.2351 13.4437 20.0781C11.0437 19.3041 8.49672 18.1661 8.51972 16.9061C8.53972 15.8761 9.88972 14.9211 12.5527 15.0631C14.8349 15.1261 17.0695 15.73 19.0727 16.8251L22.1727 11.4131C19.0242 9.88712 15.5801 9.06799 12.0817 9.01311H12.0567C10.4284 8.93769 8.80134 9.18828 7.27114 9.75015C5.74093 10.312 4.33836 11.1739 3.14572 12.2851C1.79057 13.686 1.02705 15.5551 1.01372 17.5041C0.937534 18.7205 1.17956 19.9357 1.71596 21.0301C2.25236 22.1245 3.06463 23.0602 4.07272 23.7451C5.93046 24.9902 7.97524 25.9304 10.1297 26.5301C12.6047 27.2961 14.6297 27.9651 14.6017 29.3911C14.5872 29.9116 14.3777 30.4077 14.0147 30.7811C13.62 31.1152 13.1629 31.3676 12.6699 31.5238C12.1769 31.68 11.6578 31.7369 11.1427 31.6911C8.52068 31.7916 5.93518 31.0512 3.76372 29.5781L1.01272 35.0641C4.0857 36.8169 7.56 37.7447 11.0977 37.7571H11.5627C14.3381 37.7941 17.043 36.8825 19.2297 35.1731L19.5567 34.8871L18.6657 37.2871H26.7567L28.1157 33.1391C31.1686 34.1302 34.4547 34.1439 37.5157 33.1781L38.8227 37.2871H52.0227V28.7001H54.9027C61.8587 28.7001 65.9787 25.1461 65.9787 19.1811C65.9787 12.5421 61.9787 9.49711 53.4607 9.49711" fill="white"/>
<path d="M58.7165 40.8561V44.1961H59.2165V42.7461H59.7835L60.6975 44.1951H61.2645L60.2875 42.7461C60.408 42.7438 60.5269 42.7173 60.637 42.6682C60.7472 42.6192 60.8463 42.5484 60.9286 42.4603C61.0108 42.3722 61.0746 42.2684 61.1159 42.1551C61.1573 42.0419 61.1755 41.9215 61.1695 41.8011C61.1695 41.1431 60.7695 40.8561 59.9695 40.8561H58.7165ZM59.2165 41.2971H59.9095C60.2505 41.2971 60.6345 41.3521 60.6345 41.7701C60.6345 42.2911 60.2455 42.3371 59.8155 42.3371H59.2155L59.2165 41.2971ZM59.8465 39.6271C59.269 39.6243 58.7037 39.7932 58.2223 40.1123C57.741 40.4314 57.3653 40.8864 57.143 41.4194C56.9207 41.9525 56.8618 42.5395 56.9738 43.1061C57.0858 43.6727 57.3636 44.1932 57.772 44.6015C58.1804 45.0099 58.7009 45.2877 59.2675 45.3997C59.834 45.5117 60.4211 45.4528 60.9541 45.2305C61.4871 45.0082 61.9421 44.6326 62.2612 44.1512C62.5804 43.6699 62.7493 43.1046 62.7465 42.5271C62.7502 42.1455 62.6779 41.7671 62.5337 41.4138C62.3896 41.0605 62.1764 40.7395 61.9068 40.4695C61.6372 40.1996 61.3165 39.986 60.9634 39.8414C60.6104 39.6967 60.232 39.6238 59.8505 39.6271H59.8465ZM59.8465 40.1001C60.3276 40.0937 60.7998 40.2306 61.2029 40.4933C61.606 40.756 61.922 41.1326 62.1105 41.5753C62.299 42.018 62.3517 42.5067 62.2617 42.9794C62.1717 43.4521 61.9433 43.8874 61.6053 44.2299C61.2673 44.5724 60.8351 44.8066 60.3637 44.9028C59.8922 44.9991 59.4028 44.9529 58.9576 44.7703C58.5125 44.5876 58.1317 44.2768 57.8637 43.8771C57.5957 43.4775 57.4525 43.0072 57.4525 42.5261C57.4473 42.2084 57.5056 41.8929 57.6239 41.598C57.7422 41.3032 57.9182 41.0349 58.1415 40.809C58.3649 40.583 58.6311 40.4039 58.9245 40.2822C59.218 40.1605 59.5328 40.0986 59.8505 40.1001H59.8465Z" fill="#E63E3A"/>
</svg>
