<svg width="72" height="64" viewBox="0 0 72 64" fill="none" xmlns="http://www.w3.org/2000/svg">
<path d="M49.2084 0.479248H29.1534C21.9034 2.21125 21.7534 8.23825 21.7534 8.23825V28.6052H29.4634V10.0602C29.4652 9.6199 29.6205 9.19395 29.9025 8.85574C30.1845 8.51752 30.5756 8.2882 31.0084 8.20725H49.2084V0.479248ZM33.9664 11.1942C33.9664 11.1942 32.4664 11.0472 32.4664 12.3732V18.2792H42.3734V20.0653C42.3799 20.1842 42.3613 20.3032 42.3187 20.4145C42.2761 20.5258 42.2106 20.6269 42.1263 20.7111C42.042 20.7954 41.941 20.8609 41.8297 20.9035C41.7184 20.9461 41.5994 20.9647 41.4804 20.9582H32.4664V28.6062H43.2664C43.2664 28.6062 49.8204 27.6062 49.8734 20.9362V11.1992L33.9664 11.1942Z" fill="#101820"/>
<path d="M9.50444 46.7588C9.25444 46.9288 9.05844 47.0538 8.94144 47.1298C8.51421 47.398 8.06649 47.6321 7.60244 47.8298C7.09922 48.0596 6.55535 48.187 6.00244 48.2048C4.49597 48.2509 3.03246 47.699 1.93144 46.6698C1.39932 46.1763 0.978659 45.5749 0.697566 44.9058C0.416473 44.2367 0.281422 43.5153 0.30144 42.7898C0.278555 41.3487 0.803592 39.9527 1.77044 38.8838C2.20628 38.361 2.75283 37.9416 3.37059 37.6559C3.98834 37.3702 4.66185 37.2254 5.34244 37.2318C5.97439 37.2377 6.60131 37.3448 7.19944 37.5488C7.97413 37.7837 8.68236 38.1983 9.26644 38.7588L8.35144 39.8218C7.92437 39.4095 7.40127 39.1102 6.82944 38.9508C6.34233 38.8087 5.83683 38.7396 5.32944 38.7458C4.85174 38.7425 4.37978 38.8501 3.95068 39.0601C3.52157 39.27 3.14702 39.5766 2.85644 39.9558C2.18974 40.7756 1.8354 41.8053 1.85644 42.8618C1.84238 43.3767 1.93597 43.8889 2.13124 44.3655C2.32652 44.8422 2.61916 45.2728 2.99044 45.6298C3.37407 45.9973 3.82721 46.2845 4.32331 46.4746C4.8194 46.6647 5.34845 46.7539 5.87944 46.7368C6.40768 46.726 6.92304 46.5719 7.37044 46.2908C7.79044 45.9648 8.00844 45.8038 8.01744 45.7908V43.4738H4.85744L5.30344 42.0278H9.49544L9.50444 46.7588ZM19.0184 43.9298C19.0254 44.4671 18.926 45.0004 18.7261 45.4991C18.5261 45.9978 18.2296 46.4521 17.8534 46.8358C17.4899 47.2229 17.0512 47.5319 16.5643 47.7438C16.0773 47.9556 15.5522 48.0659 15.0212 48.068C14.4901 48.0701 13.9642 47.9638 13.4756 47.7557C12.987 47.5476 12.546 47.2421 12.1794 46.8578C11.7933 46.4785 11.4887 46.0242 11.2844 45.523C11.0801 45.0217 10.9804 44.484 10.9914 43.9428C10.9754 42.8525 11.3818 41.7983 12.1254 41.0008C12.4685 40.6023 12.8952 40.2845 13.3752 40.07C13.8553 39.8554 14.3768 39.7495 14.9024 39.7598C15.4525 39.7405 16.0003 39.8375 16.5104 40.0442C17.0204 40.251 17.4811 40.563 17.8624 40.9598C18.2447 41.3518 18.5441 41.8169 18.7428 42.3271C18.9414 42.8374 19.0351 43.3825 19.0184 43.9298ZM17.5364 43.9298C17.5449 43.5764 17.4834 43.2248 17.3553 42.8952C17.2273 42.5657 17.0353 42.2648 16.7904 42.0098C16.557 41.7534 16.2712 41.5502 15.9523 41.4139C15.6335 41.2776 15.2891 41.2114 14.9424 41.2198C14.6109 41.2245 14.2845 41.3017 13.9859 41.4459C13.6874 41.5901 13.4241 41.798 13.2144 42.0548C12.7439 42.5616 12.4851 43.2293 12.4914 43.9208C12.4753 44.6183 12.7351 45.2939 13.2144 45.8008C13.4451 46.0548 13.7273 46.2567 14.0422 46.3929C14.357 46.5292 14.6974 46.5966 15.0404 46.5908C15.3767 46.5964 15.7103 46.5295 16.0185 46.3948C16.3266 46.26 16.6022 46.0605 16.8264 45.8098C17.0664 45.5651 17.2545 45.2745 17.3796 44.9555C17.5047 44.6364 17.5642 44.2954 17.5544 43.9528L17.5364 43.9298ZM28.4204 43.9298C28.4274 44.4671 28.328 45.0004 28.1281 45.4991C27.9281 45.9978 27.6316 46.4521 27.2554 46.8358C26.8919 47.2229 26.4532 47.5319 25.9663 47.7438C25.4793 47.9556 24.9542 48.0659 24.4232 48.068C23.8921 48.0701 23.3662 47.9638 22.8776 47.7557C22.389 47.5476 21.948 47.2421 21.5814 46.8578C21.1948 46.4786 20.8897 46.0245 20.6847 45.5233C20.4797 45.0221 20.3793 44.4842 20.3894 43.9428C20.375 42.8521 20.7828 41.798 21.5274 41.0008C21.8705 40.6023 22.2972 40.2845 22.7772 40.07C23.2573 39.8554 23.7788 39.7495 24.3044 39.7598C24.8545 39.7405 25.4023 39.8375 25.9124 40.0442C26.4224 40.251 26.8831 40.563 27.2644 40.9598C27.65 41.3503 27.9527 41.8147 28.1544 42.325C28.3562 42.8354 28.4528 43.3812 28.4384 43.9298H28.4204ZM26.9384 43.9298C26.9469 43.5764 26.8854 43.2248 26.7573 42.8952C26.6293 42.5657 26.4373 42.2648 26.1924 42.0098C25.959 41.7534 25.6732 41.5502 25.3543 41.4139C25.0355 41.2776 24.6911 41.2114 24.3444 41.2198C24.0093 41.2167 23.6777 41.288 23.3736 41.4286C23.0694 41.5692 22.8002 41.7756 22.5854 42.0328C22.1148 42.5395 21.856 43.2073 21.8624 43.8988C21.85 44.5958 22.1131 45.2696 22.5944 45.7738C22.8251 46.0278 23.1073 46.2297 23.4222 46.3659C23.737 46.5022 24.0774 46.5696 24.4204 46.5638C24.7567 46.5694 25.0903 46.5025 25.3985 46.3678C25.7066 46.233 25.9822 46.0335 26.2064 45.7828C26.4471 45.5431 26.6374 45.2578 26.7662 44.9435C26.8949 44.6293 26.9596 44.2924 26.9564 43.9528L26.9384 43.9298ZM37.1174 47.8188L35.7784 48.0328V46.6938L35.4834 47.0328C35.2277 47.2767 34.9372 47.4812 34.6214 47.6398C34.1579 47.858 33.6518 47.9708 33.1394 47.9698C32.6329 47.9742 32.1313 47.8693 31.669 47.6622C31.2066 47.4551 30.7944 47.1507 30.4604 46.7698C29.7356 45.9971 29.341 44.9721 29.3604 43.9128C29.3383 42.8309 29.7275 41.7809 30.4494 40.9748C30.7777 40.5857 31.1883 40.2745 31.6517 40.0636C32.115 39.8528 32.6195 39.7477 33.1284 39.7558C33.6706 39.7405 34.2096 39.8429 34.7084 40.0558C35.0109 40.1965 35.2848 40.3918 35.5164 40.6318L35.7444 40.9488V37.4298L37.1914 37.2158L37.1174 47.8188ZM35.8624 44.0188C35.8724 43.6494 35.8075 43.2818 35.6718 42.9381C35.536 42.5944 35.3321 42.2817 35.0724 42.0188C34.8492 41.7637 34.5749 41.5584 34.2672 41.4161C33.9595 41.2738 33.6254 41.1977 33.2864 41.1928C32.9432 41.1795 32.6013 41.2427 32.2855 41.3777C31.9697 41.5128 31.6879 41.7164 31.4604 41.9738C31.0216 42.4761 30.7859 43.124 30.7994 43.7908C30.7721 44.5163 31.0155 45.2259 31.4824 45.7818C31.6938 46.0325 31.9589 46.2326 32.258 46.3671C32.5571 46.5015 32.8826 46.5671 33.2104 46.5588C33.8924 46.5632 34.5498 46.3042 35.0454 45.8358C35.309 45.6124 35.5204 45.334 35.6647 45.02C35.809 44.7061 35.8826 44.3643 35.8804 44.0188H35.8624ZM44.7914 38.8978H40.7374V41.7108H43.8624V43.1568H40.7374V47.8128L39.1614 48.0538V37.4588H44.4614L44.7914 38.8978ZM48.0414 38.0718L47.0724 39.3268L46.1394 38.0718L47.1264 36.8308L48.0194 38.0718H48.0414ZM47.7514 47.8268L46.3044 48.0268V40.1918L47.7514 39.9688V47.8268ZM54.2874 39.8888L53.6044 41.4888C53.5152 41.4836 53.4257 41.4836 53.3364 41.4888C53.1944 41.4897 53.0526 41.5018 52.9124 41.5248C52.7577 41.5574 52.6078 41.6098 52.4664 41.6808C52.1115 41.8816 51.8345 42.1962 51.6804 42.5738C51.429 43.0752 51.2991 43.6289 51.3014 44.1898V47.8728L49.8544 48.1098V40.1898L51.1934 39.9438V41.5818C51.3674 41.2958 51.5504 41.0148 51.7204 40.7198C51.9508 40.4386 52.2488 40.2204 52.5864 40.0858C52.9003 39.9929 53.2237 39.9359 53.5504 39.9158C53.7977 39.8836 54.0473 39.8732 54.2964 39.8848L54.2874 39.8888ZM65.0694 47.8448L63.6224 48.0588V42.6788C63.6588 42.2885 63.5419 41.8994 63.2964 41.5938C63.1428 41.4624 62.963 41.3651 62.7689 41.3086C62.5748 41.252 62.3708 41.2374 62.1707 41.2658C61.9705 41.2942 61.7787 41.3649 61.6079 41.4732C61.4372 41.5814 61.2915 41.7248 61.1804 41.8938C61.0089 42.172 60.915 42.491 60.9084 42.8178V47.8358L59.4614 48.1078V42.7078C59.4863 42.3208 59.3756 41.9372 59.1484 41.6228C59.0415 41.4996 58.908 41.4022 58.758 41.3379C58.608 41.2736 58.4454 41.2442 58.2824 41.2518H58.1444C57.9172 41.2397 57.6914 41.2951 57.4957 41.4112C57.2999 41.5272 57.1429 41.6986 57.0444 41.9038C56.8579 42.295 56.769 42.7257 56.7854 43.1588V47.8378L55.2854 48.1098V40.1898L56.6244 39.9528V40.9528C56.7515 40.749 56.9012 40.5602 57.0704 40.3898C57.2462 40.2139 57.4549 40.0744 57.6847 39.9793C57.9145 39.8842 58.1608 39.8355 58.4094 39.8358C58.8561 39.8049 59.3023 39.9024 59.6954 40.1168C60.0096 40.3618 60.2581 40.6811 60.4184 41.0458C60.6289 40.6687 60.9388 40.3564 61.3143 40.1431C61.6899 39.9298 62.1167 39.8235 62.5484 39.8358C62.9229 39.8073 63.2988 39.8705 63.6434 40.0198C63.988 40.1691 64.2911 40.4001 64.5264 40.6928C64.9209 41.3149 65.1056 42.047 65.0534 42.7818L65.0694 47.8448ZM71.6994 45.4608C71.7094 45.7945 71.648 46.1264 71.5194 46.4344C71.3907 46.7424 71.1978 47.0194 70.9534 47.2468C70.7009 47.4817 70.4045 47.6644 70.0812 47.7846C69.7579 47.9047 69.4141 47.9598 69.0694 47.9468C68.5273 47.9525 67.9937 47.8123 67.5244 47.5408C67.1081 47.3151 66.7527 46.9918 66.4884 46.5988L67.5014 45.6748C67.5643 45.7695 67.6327 45.8603 67.7064 45.9468C67.8791 46.1362 68.0895 46.2874 68.324 46.3907C68.5586 46.4941 68.8121 46.5472 69.0684 46.5468C69.3769 46.5585 69.6784 46.4531 69.9124 46.2518C70.0215 46.1479 70.1062 46.0211 70.1603 45.8805C70.2144 45.7399 70.2367 45.589 70.2254 45.4388C70.2254 45.0388 69.9794 44.7688 69.4794 44.6218C68.4974 44.3218 67.9664 44.1488 67.8904 44.1218C67.5091 43.9417 67.1735 43.6778 66.9084 43.3498C66.6804 42.9791 66.557 42.5536 66.5515 42.1184C66.5459 41.6833 66.6583 41.2547 66.8767 40.8783C67.0952 40.5019 67.4115 40.1917 67.7922 39.9807C68.1728 39.7697 68.6035 39.6657 69.0384 39.6798C69.532 39.6735 70.0191 39.7933 70.4534 40.0278C70.8248 40.2045 71.1446 40.4734 71.3824 40.8088L70.5204 41.7908C70.3817 41.6584 70.2326 41.5373 70.0744 41.4288C69.792 41.2029 69.4448 41.0729 69.0834 41.0578C68.8201 41.0459 68.5595 41.1157 68.3374 41.2578C68.2238 41.3451 68.1329 41.4585 68.0723 41.5883C68.0118 41.7182 67.9833 41.8607 67.9894 42.0038C67.9785 42.1397 68.0037 42.276 68.0626 42.399C68.1214 42.5219 68.2118 42.6271 68.3244 42.7038C68.7213 42.8981 69.1439 43.0348 69.5794 43.1098C70.1486 43.2272 70.6704 43.51 71.0794 43.9228C71.2817 44.1235 71.4409 44.3633 71.5475 44.6276C71.6541 44.8918 71.7058 45.176 71.6994 45.4608Z" fill="#101820"/>
<path d="M6.89845 63.3796C6.88228 63.364 6.86957 63.3452 6.86113 63.3243C6.85269 63.3035 6.84871 63.2811 6.84944 63.2586V58.6066C6.84723 58.5594 6.86336 58.5132 6.89445 58.4776C6.91087 58.4614 6.93042 58.4487 6.95191 58.4403C6.9734 58.4318 6.99638 58.4279 7.01945 58.4286H8.86745C9.35928 58.398 9.84617 58.5417 10.2424 58.8346C10.4103 58.9749 10.543 59.1525 10.6298 59.3532C10.7166 59.554 10.7552 59.7723 10.7424 59.9906C10.7571 60.3074 10.6694 60.6205 10.4924 60.8836C10.3182 61.1233 10.0735 61.3026 9.79245 61.3966L10.8284 63.2136C10.8338 63.2387 10.8338 63.2646 10.8284 63.2896C10.8285 63.3107 10.8241 63.3315 10.8157 63.3508C10.8073 63.3701 10.7949 63.3874 10.7794 63.4016C10.7524 63.4271 10.7166 63.4414 10.6794 63.4416H10.0454C9.98123 63.4457 9.9177 63.4265 9.86645 63.3876C9.82001 63.3488 9.78075 63.302 9.75045 63.2496L8.85745 61.5576H7.85745V63.2716C7.85818 63.2941 7.8542 63.3165 7.84576 63.3373C7.83732 63.3582 7.82461 63.377 7.80844 63.3926C7.79125 63.4089 7.771 63.4216 7.74886 63.4301C7.72671 63.4385 7.70312 63.4424 7.67945 63.4416H7.01844C6.9952 63.4403 6.97249 63.4342 6.95181 63.4235C6.93113 63.4128 6.91294 63.3978 6.89845 63.3796ZM8.84944 60.7276C9.07936 60.7453 9.30788 60.6789 9.49245 60.5406C9.56655 60.4696 9.62413 60.3832 9.66111 60.2874C9.69809 60.1917 9.71357 60.089 9.70645 59.9866C9.71301 59.8829 9.69731 59.7791 9.6604 59.682C9.62349 59.5849 9.56623 59.4968 9.49245 59.4236C9.31067 59.2789 9.08125 59.2075 8.84944 59.2236H7.85845V60.7236L8.84944 60.7276Z" fill="#101820"/>
<path d="M11.8765 63.0419C11.545 62.6913 11.3654 62.2242 11.3765 61.7419V61.5629C11.3415 61.0546 11.5009 60.552 11.8224 60.1569C12.1763 59.8268 12.6421 59.6433 13.126 59.6433C13.6098 59.6433 14.0756 59.8268 14.4295 60.1569C14.7457 60.5413 14.9051 61.031 14.8755 61.5279V61.6799C14.8762 61.7028 14.8717 61.7256 14.8623 61.7466C14.853 61.7675 14.839 61.7861 14.8214 61.8009C14.8049 61.8181 14.7848 61.8314 14.7625 61.8399C14.7402 61.8484 14.7162 61.8518 14.6925 61.8499H12.3535V61.9079C12.3541 62.1459 12.4308 62.3775 12.5724 62.5689C12.6386 62.6544 12.7242 62.7228 12.8221 62.7686C12.92 62.8143 13.0275 62.836 13.1355 62.8319C13.264 62.8341 13.3913 62.8052 13.5063 62.7477C13.6214 62.6903 13.7209 62.606 13.7965 62.5019C13.8245 62.4637 13.8583 62.43 13.8965 62.4019C13.9365 62.3946 13.9774 62.3946 14.0175 62.4019H14.6465C14.6866 62.4024 14.7256 62.4149 14.7585 62.4379C14.7731 62.45 14.7847 62.4654 14.7925 62.4827C14.8003 62.5 14.804 62.5189 14.8035 62.5379C14.785 62.6903 14.7143 62.8316 14.6035 62.9379C14.439 63.1127 14.2397 63.251 14.0185 63.3439C13.7363 63.4636 13.4318 63.5216 13.1255 63.5139C12.8962 63.521 12.6679 63.4829 12.4534 63.4017C12.2389 63.3206 12.0425 63.1979 11.8755 63.0409L11.8765 63.0419ZM13.9255 61.2559C13.9369 61.0135 13.8626 60.7748 13.7155 60.5819C13.6452 60.4983 13.5568 60.432 13.457 60.388C13.3571 60.3439 13.2485 60.3234 13.1395 60.3279C13.031 60.3225 12.9228 60.3426 12.8236 60.3867C12.7245 60.4309 12.637 60.4977 12.5685 60.5819C12.4213 60.7748 12.347 61.0135 12.3585 61.2559H13.9255Z" fill="#101820"/>
<path d="M16.0724 63.3507C15.8822 63.2626 15.7176 63.1273 15.5944 62.9577C15.4803 62.7956 15.4195 62.6019 15.4204 62.4037C15.4171 62.2506 15.4512 62.099 15.5197 61.962C15.5882 61.8251 15.689 61.7069 15.8134 61.6177C16.1326 61.3946 16.5025 61.255 16.8894 61.2117L17.8674 61.0687V60.9167C17.8753 60.7534 17.8193 60.5935 17.7114 60.4707C17.5717 60.3552 17.3921 60.2992 17.2114 60.3147C17.0812 60.3099 16.9519 60.3392 16.8364 60.3997C16.7502 60.449 16.6705 60.5092 16.5994 60.5787L16.4834 60.6947C16.4797 60.7198 16.4666 60.7425 16.4467 60.7583C16.4269 60.7741 16.4017 60.7817 16.3764 60.7797H15.8184C15.7976 60.7812 15.7766 60.7781 15.757 60.7708C15.7374 60.7635 15.7196 60.7521 15.7048 60.7373C15.69 60.7225 15.6786 60.7047 15.6713 60.6851C15.664 60.6655 15.661 60.6446 15.6624 60.6237C15.6788 60.4758 15.7394 60.3364 15.8364 60.2237C15.9742 60.0521 16.1521 59.9171 16.3544 59.8307C16.6298 59.7023 16.9307 59.638 17.2344 59.6427C17.6778 59.6016 18.1194 59.7379 18.4624 60.0217C18.5907 60.1519 18.6909 60.307 18.757 60.4774C18.823 60.6479 18.8535 60.83 18.8464 61.0127V63.2447C18.8475 63.2893 18.8314 63.3326 18.8014 63.3657C18.785 63.3819 18.7655 63.3946 18.744 63.403C18.7225 63.4115 18.6995 63.4154 18.6764 63.4147H18.0804C18.0354 63.4147 17.9921 63.3968 17.9602 63.3649C17.9284 63.333 17.9104 63.2898 17.9104 63.2447V62.9637C17.7942 63.1228 17.6412 63.2514 17.4644 63.3387C17.2415 63.4436 16.9967 63.494 16.7504 63.4857C16.517 63.4941 16.2849 63.4478 16.0724 63.3507ZM17.6264 62.5557C17.8046 62.3496 17.8945 62.0815 17.8764 61.8097V61.6717L17.1624 61.7837C16.6134 61.8687 16.3414 62.0517 16.3414 62.3327C16.339 62.4028 16.3552 62.4724 16.3882 62.5344C16.4212 62.5963 16.4699 62.6485 16.5294 62.6857C16.6628 62.7698 16.8178 62.8132 16.9754 62.8107C17.0959 62.8166 17.2162 62.797 17.3286 62.7532C17.4409 62.7095 17.5428 62.6425 17.6274 62.5567L17.6264 62.5557Z" fill="#101820"/>
<path d="M20.0194 63.0417C19.7453 62.6897 19.5974 62.2558 19.5994 61.8097V61.3367C19.5959 60.8939 19.7422 60.4629 20.0144 60.1137C20.157 59.965 20.3281 59.8466 20.5176 59.7658C20.707 59.6849 20.9109 59.6432 21.1169 59.6432C21.3229 59.6432 21.5268 59.6849 21.7163 59.7658C21.9057 59.8466 22.0769 59.965 22.2194 60.1137V58.5287C22.2186 58.5051 22.2226 58.4815 22.231 58.4593C22.2394 58.4372 22.2521 58.4169 22.2684 58.3997C22.3024 58.3712 22.3451 58.3553 22.3894 58.3547H23.0104C23.0337 58.3529 23.0572 58.3562 23.0791 58.3643C23.101 58.3724 23.1209 58.3852 23.1375 58.4017C23.154 58.4182 23.1667 58.4381 23.1749 58.4601C23.183 58.482 23.1862 58.5054 23.1844 58.5287V63.2607C23.184 63.3058 23.1665 63.3491 23.1354 63.3817C23.1193 63.3984 23.0999 63.4114 23.0783 63.4199C23.0567 63.4283 23.0336 63.432 23.0104 63.4307H22.4344C22.389 63.4305 22.3455 63.4126 22.3131 63.3809C22.2806 63.3492 22.2617 63.3061 22.2604 63.2607V62.9977C22.1193 63.1513 21.9485 63.2747 21.7583 63.3605C21.5682 63.4463 21.3626 63.4927 21.154 63.4969C20.9455 63.5011 20.7382 63.463 20.5448 63.385C20.3513 63.3069 20.1757 63.1905 20.0284 63.0427L20.0194 63.0417ZM22.0014 62.4707C22.1379 62.282 22.2143 62.0565 22.2204 61.8237V61.2747C22.2168 61.053 22.1382 60.8391 21.9974 60.6677C21.9234 60.5827 21.8308 60.5158 21.7267 60.4725C21.6226 60.4291 21.5099 60.4104 21.3974 60.4177C20.8884 60.4177 20.6164 60.7307 20.5804 61.3597V61.8057C20.6164 62.4347 20.8884 62.7477 21.3974 62.7477C21.5131 62.7545 21.6287 62.7325 21.7337 62.6836C21.8388 62.6348 21.9301 62.5606 21.9994 62.4677L22.0014 62.4707Z" fill="#101820"/>
<path d="M26.2565 63.0092C26.0654 62.8177 25.9161 62.5888 25.8178 62.3369C25.7195 62.0849 25.6745 61.8154 25.6855 61.5452V60.3222C25.6765 60.0523 25.7238 59.7835 25.8246 59.533C25.9253 59.2824 26.0771 59.0557 26.2705 58.8672C26.7025 58.537 27.2312 58.3582 27.775 58.3582C28.3187 58.3582 28.8474 58.537 29.2795 58.8672C29.4741 59.0548 29.6272 59.2814 29.7286 59.532C29.8301 59.7827 29.8777 60.0519 29.8685 60.3222V61.5452C29.8794 61.8154 29.8344 62.0849 29.7361 62.3369C29.6378 62.5888 29.4885 62.8177 29.2975 63.0092C28.8548 63.3281 28.323 63.4997 27.7775 63.4997C27.2319 63.4997 26.6991 63.3281 26.2565 63.0092ZM28.5335 62.3842C28.7449 62.1363 28.8524 61.8164 28.8335 61.4911V60.3302C28.8496 60.0053 28.7425 59.6864 28.5335 59.4371C28.3253 59.2528 28.057 59.1511 27.779 59.1511C27.501 59.1511 27.2326 59.2528 27.0244 59.4371C26.8114 59.6841 26.7037 60.0047 26.7245 60.3302V61.4911C26.7042 61.8157 26.8098 62.1356 27.0195 62.3842C27.1201 62.4818 27.2398 62.5576 27.3711 62.6068C27.5024 62.656 27.6424 62.6776 27.7825 62.6702C27.9211 62.6774 28.0597 62.6558 28.1896 62.6065C28.3194 62.5573 28.4375 62.4816 28.5364 62.3842H28.5335Z" fill="#101820"/>
<path d="M31.0725 63.0706C30.8048 62.7378 30.6695 62.318 30.6925 61.8916V59.8916C30.6915 59.8674 30.6958 59.8434 30.7051 59.8211C30.7145 59.7988 30.7286 59.7788 30.7465 59.7626C30.78 59.7334 30.823 59.7174 30.8675 59.7176H31.5195C31.5419 59.7171 31.5642 59.7212 31.585 59.7296C31.6058 59.738 31.6247 59.7506 31.6405 59.7666C31.672 59.8005 31.6896 59.8452 31.6895 59.8916V61.8516C31.6895 62.4406 31.9435 62.7446 32.4525 62.7446C32.5616 62.7506 32.6707 62.733 32.7723 62.6929C32.874 62.6529 32.9658 62.5914 33.0415 62.5126C33.1952 62.3333 33.2737 62.1014 33.2605 61.8656V59.9056C33.2597 59.8819 33.2636 59.8583 33.272 59.8362C33.2804 59.814 33.2932 59.7938 33.3095 59.7766C33.3448 59.7478 33.3889 59.7319 33.4345 59.7316H34.0685C34.1143 59.7304 34.1589 59.7464 34.1935 59.7766C34.2093 59.7939 34.2214 59.8143 34.2292 59.8365C34.2369 59.8586 34.2401 59.8821 34.2385 59.9056V63.2766C34.2395 63.3212 34.2234 63.3645 34.1935 63.3976C34.177 63.4138 34.1575 63.4265 34.136 63.4349C34.1145 63.4434 34.0915 63.4473 34.0685 63.4466H33.4745C33.4293 63.4466 33.3859 63.429 33.3535 63.3976C33.3225 63.3648 33.305 63.3216 33.3045 63.2766V62.9816C33.1662 63.1622 32.9853 63.3057 32.778 63.3993C32.5707 63.4928 32.3434 63.5335 32.1165 63.5176C31.9203 63.5267 31.7246 63.4918 31.5437 63.4153C31.3629 63.3388 31.2015 63.2227 31.0715 63.0756L31.0725 63.0706Z" fill="#101820"/>
<path d="M35.2204 63.3806C35.2042 63.365 35.1915 63.3462 35.1831 63.3253C35.1746 63.3045 35.1707 63.2821 35.1714 63.2596V59.8936C35.1701 59.8699 35.1738 59.8462 35.1822 59.8239C35.1907 59.8017 35.2037 59.7815 35.2204 59.7646C35.2362 59.7487 35.2551 59.7361 35.2759 59.7277C35.2967 59.7192 35.319 59.7151 35.3414 59.7156H35.9264C35.9501 59.7149 35.9737 59.7188 35.9958 59.7272C36.018 59.7356 36.0382 59.7483 36.0554 59.7646C36.0875 59.7999 36.105 59.846 36.1044 59.8936V60.1886C36.2245 60.0315 36.3813 59.9063 36.561 59.8238C36.7408 59.7414 36.938 59.7042 37.1354 59.7156H37.4354C37.4812 59.7145 37.5258 59.7305 37.5604 59.7606C37.5762 59.778 37.5884 59.7984 37.5961 59.8205C37.6038 59.8427 37.607 59.8662 37.6054 59.8896V60.4076C37.6067 60.4298 37.6033 60.452 37.5956 60.4728C37.5878 60.4937 37.5758 60.5127 37.5604 60.5286C37.545 60.5465 37.5258 60.5606 37.5041 60.57C37.4825 60.5793 37.459 60.5837 37.4354 60.5826H36.8774C36.7809 60.5744 36.6838 60.5874 36.5928 60.6206C36.5019 60.6538 36.4193 60.7065 36.3508 60.775C36.2823 60.8435 36.2296 60.9261 36.1964 61.0171C36.1631 61.108 36.1502 61.2051 36.1584 61.3016V63.2616C36.1579 63.3067 36.1404 63.3499 36.1094 63.3826C36.0754 63.4142 36.0308 63.4317 35.9844 63.4316H35.3504C35.3263 63.4331 35.3022 63.4294 35.2798 63.4206C35.2573 63.4118 35.237 63.3981 35.2204 63.3806Z" fill="#101820"/>
<path d="M39.7795 63.3795C39.7626 63.3642 39.7491 63.3455 39.7398 63.3247C39.7305 63.3038 39.7256 63.2813 39.7255 63.2585V58.6065C39.7248 58.5588 39.7423 58.5127 39.7745 58.4775C39.7909 58.4613 39.8104 58.4486 39.8319 58.4401C39.8534 58.4317 39.8764 58.4278 39.8995 58.4285H41.7455C42.2372 58.3983 42.724 58.5421 43.1205 58.8345C43.2877 58.9753 43.4199 59.153 43.5066 59.3536C43.5934 59.5542 43.6324 59.7723 43.6205 59.9905C43.6374 60.3075 43.5495 60.6213 43.3705 60.8835C43.1977 61.1247 42.9525 61.3044 42.6705 61.3965L43.7065 63.2135C43.7122 63.2385 43.7122 63.2645 43.7065 63.2895C43.7073 63.3103 43.7038 63.331 43.696 63.3503C43.6882 63.3697 43.6765 63.3871 43.6615 63.4015C43.6339 63.4263 43.5985 63.4405 43.5615 63.4415H42.9055C42.8413 63.4456 42.7777 63.4264 42.7265 63.3875C42.6788 63.3499 42.6394 63.3029 42.6105 63.2495L41.7175 61.5575H40.7395V63.2715C40.739 63.3166 40.7215 63.3598 40.6905 63.3925C40.6553 63.4247 40.6092 63.4422 40.5615 63.4415H39.9055C39.8812 63.4411 39.8573 63.4353 39.8356 63.4246C39.8138 63.4139 39.7946 63.3985 39.7795 63.3795ZM41.7265 60.7275C41.9564 60.7452 42.1849 60.6787 42.3695 60.5405C42.4436 60.4695 42.5012 60.3831 42.5381 60.2873C42.5751 60.1916 42.5906 60.0889 42.5835 59.9865C42.5901 59.8828 42.5743 59.7789 42.5374 59.6818C42.5005 59.5847 42.4433 59.4967 42.3695 59.4235C42.1877 59.2788 41.9583 59.2074 41.7265 59.2235H40.7355V60.7235L41.7265 60.7275Z" fill="#101820"/>
<path d="M44.7524 63.0419C44.4209 62.6914 44.2412 62.2242 44.2524 61.7419V61.5629C44.2243 61.0516 44.392 60.5488 44.7214 60.1569C45.0753 59.8268 45.5411 59.6433 46.0249 59.6433C46.5088 59.6433 46.9746 59.8268 47.3284 60.1569C47.6447 60.5413 47.8041 61.031 47.7744 61.5279V61.6799C47.7749 61.7023 47.7708 61.7246 47.7624 61.7454C47.754 61.7662 47.7414 61.7851 47.7254 61.8009C47.7089 61.8181 47.6888 61.8314 47.6665 61.8399C47.6441 61.8484 47.6202 61.8518 47.5964 61.8499H45.2304V61.9079C45.2288 62.1463 45.3058 62.3786 45.4494 62.5689C45.5146 62.6542 45.5993 62.7226 45.6964 62.7684C45.7935 62.8142 45.9002 62.836 46.0074 62.8319C46.1366 62.834 46.2644 62.8052 46.3801 62.7478C46.4958 62.6904 46.596 62.606 46.6724 62.5019C46.6994 62.4627 46.7333 62.4288 46.7724 62.4019C46.8125 62.3946 46.8534 62.3946 46.8934 62.4019H47.5234C47.5622 62.4013 47.5999 62.414 47.6304 62.4379C47.6458 62.4496 47.6582 62.4648 47.6667 62.4821C47.6752 62.4995 47.6796 62.5186 47.6794 62.5379C47.6607 62.6913 47.588 62.8331 47.4744 62.9379C47.3119 63.1126 47.1142 63.2509 46.8944 63.3439C46.6122 63.4632 46.3078 63.5212 46.0014 63.5139C45.539 63.5282 45.0898 63.3585 44.7524 63.0419ZM46.7974 61.2559C46.8109 61.0133 46.7363 60.7739 46.5874 60.5819C46.515 60.5015 46.4266 60.4373 46.3278 60.3934C46.229 60.3494 46.1221 60.3267 46.0139 60.3267C45.9058 60.3267 45.7989 60.3494 45.7001 60.3934C45.6013 60.4373 45.5128 60.5015 45.4404 60.5819C45.2951 60.7755 45.2225 61.0141 45.2354 61.2559H46.7974Z" fill="#101820"/>
<path d="M49.5564 63.3849C49.5148 63.3485 49.4825 63.3025 49.4624 63.2509L48.1234 59.9379C48.1207 59.9157 48.1207 59.8932 48.1234 59.8709C48.1231 59.8502 48.1269 59.8296 48.1347 59.8104C48.1424 59.7912 48.1539 59.7737 48.1684 59.7589C48.1957 59.733 48.2309 59.7171 48.2684 59.7139H48.8624C48.9054 59.7115 48.9479 59.7238 48.9828 59.749C49.0178 59.7741 49.043 59.8104 49.0544 59.8519L50.0004 62.3429L50.9424 59.8519C50.9528 59.8116 50.9766 59.776 51.0098 59.7509C51.043 59.7259 51.0838 59.7128 51.1254 59.7139H51.7194C51.7394 59.7138 51.7592 59.7177 51.7776 59.7254C51.7959 59.7332 51.8126 59.7446 51.8264 59.7589C51.841 59.7737 51.8525 59.7912 51.8602 59.8104C51.8679 59.8296 51.8717 59.8502 51.8714 59.8709C51.8746 59.8931 51.8746 59.9157 51.8714 59.9379L50.5354 63.2559C50.5167 63.3093 50.4815 63.3553 50.435 63.3875C50.3885 63.4196 50.333 63.4362 50.2764 63.4349H49.7364C49.6732 63.4424 49.6095 63.4264 49.5574 63.3899L49.5564 63.3849Z" fill="#101820"/>
<path d="M52.5335 59.0581C52.5025 59.0254 52.485 58.9822 52.4845 58.9371V58.4151C52.4837 58.3674 52.5013 58.3213 52.5335 58.2861C52.5662 58.2551 52.6094 58.2376 52.6545 58.2371H53.3155C53.3385 58.2366 53.3614 58.2406 53.3829 58.2491C53.4043 58.2575 53.4239 58.2701 53.4405 58.2861C53.4581 58.3025 53.472 58.3225 53.4813 58.3448C53.4906 58.367 53.4951 58.391 53.4945 58.4151V58.9371C53.4943 58.9599 53.4894 58.9824 53.4801 59.0033C53.4708 59.0241 53.4573 59.0428 53.4405 59.0581C53.406 59.0889 53.3617 59.1063 53.3155 59.1071H52.6545C52.6094 59.1066 52.5662 59.0891 52.5335 59.0581ZM52.5644 63.3801C52.5476 63.3648 52.5341 63.3461 52.5248 63.3253C52.5155 63.3044 52.5106 63.2819 52.5104 63.2591V59.8871C52.5094 59.863 52.5138 59.8389 52.5231 59.8166C52.5324 59.7943 52.5465 59.7743 52.5644 59.7581C52.598 59.7289 52.641 59.7129 52.6854 59.7131H53.2925C53.3375 59.7136 53.3807 59.7311 53.4135 59.7621C53.445 59.7961 53.4625 59.8407 53.4625 59.8871V63.2581C53.4625 63.3032 53.4445 63.3464 53.4127 63.3783C53.3808 63.4102 53.3375 63.4281 53.2925 63.4281H52.6854C52.6631 63.4287 52.6408 63.4248 52.62 63.4165C52.5992 63.4083 52.5803 63.3959 52.5644 63.3801Z" fill="#101820"/>
<path d="M54.7344 63.0419C54.4067 62.689 54.2276 62.2234 54.2344 61.7419V61.5629C54.2017 61.0549 54.3608 60.5531 54.6804 60.1569C55.0343 59.8268 55.5001 59.6433 55.9839 59.6433C56.4678 59.6433 56.9336 59.8268 57.2874 60.1569C57.6037 60.5413 57.763 61.031 57.7334 61.5279V61.6799C57.7342 61.7028 57.7297 61.7256 57.7203 61.7466C57.711 61.7675 57.697 61.7861 57.6794 61.8009C57.6634 61.8176 57.6439 61.8306 57.6223 61.839C57.6007 61.8475 57.5776 61.8512 57.5544 61.8499H55.2194V61.9079C55.2222 62.1456 55.2987 62.3766 55.4384 62.5689C55.5046 62.6544 55.5902 62.7228 55.6881 62.7686C55.786 62.8143 55.8934 62.836 56.0014 62.8319C56.1305 62.8336 56.2582 62.8046 56.3738 62.7472C56.4894 62.6898 56.5898 62.6057 56.6664 62.5019C56.6934 62.4628 56.7273 62.4289 56.7664 62.4019C56.8064 62.3946 56.8474 62.3946 56.8874 62.4019H57.5174C57.5577 62.4012 57.5971 62.4139 57.6294 62.4379C57.644 62.45 57.6557 62.4654 57.6635 62.4827C57.6713 62.5 57.675 62.5189 57.6744 62.5379C57.656 62.6903 57.5853 62.8316 57.4744 62.9379C57.31 63.1127 57.1107 63.251 56.8894 63.3439C56.6073 63.4636 56.3028 63.5216 55.9964 63.5139C55.7653 63.5227 55.5347 63.4855 55.3181 63.4045C55.1014 63.3235 54.903 63.2002 54.7344 63.0419ZM56.7834 61.2559C56.7949 61.0135 56.7206 60.7748 56.5734 60.5819C56.5032 60.4983 56.4148 60.432 56.315 60.388C56.2151 60.3439 56.1065 60.3234 55.9974 60.3279C55.889 60.3225 55.7808 60.3426 55.6816 60.3867C55.5824 60.4309 55.495 60.4977 55.4264 60.5819C55.2793 60.7748 55.2049 61.0135 55.2164 61.2559H56.7834Z" fill="#101820"/>
<path d="M59.1994 63.2547L58.1774 59.9417C58.1743 59.9195 58.1743 59.897 58.1774 59.8747C58.1771 59.854 58.1809 59.8334 58.1887 59.8142C58.1964 59.795 58.2079 59.7775 58.2224 59.7627C58.2363 59.7483 58.2529 59.7369 58.2713 59.7292C58.2897 59.7215 58.3095 59.7176 58.3294 59.7177H58.8694C58.9153 59.7161 58.9601 59.7322 58.9944 59.7627C59.0268 59.7864 59.0515 59.8191 59.0654 59.8567L59.7574 62.2047L60.4944 59.8747C60.5076 59.8317 60.5321 59.793 60.5654 59.7627C60.607 59.7326 60.6572 59.7168 60.7084 59.7177H61.0704C61.1202 59.7169 61.1688 59.7327 61.2084 59.7627C61.2418 59.793 61.2663 59.8317 61.2794 59.8747L62.0204 62.2047L62.7124 59.8567C62.7231 59.8185 62.7468 59.7853 62.7794 59.7627C62.8135 59.7318 62.8585 59.7156 62.9044 59.7177H63.4404C63.4821 59.718 63.5221 59.7341 63.5524 59.7627C63.5829 59.7922 63.6005 59.8324 63.6014 59.8747V59.9417L62.5834 63.2547C62.5664 63.3056 62.5372 63.3516 62.4984 63.3887C62.4567 63.4214 62.4043 63.4374 62.3514 63.4337H61.8784C61.8237 63.4391 61.7689 63.4237 61.725 63.3905C61.681 63.3574 61.6512 63.3089 61.6414 63.2547L60.9044 61.0227L60.1634 63.2547C60.1499 63.3087 60.1179 63.3562 60.0729 63.3889C60.028 63.4216 59.9729 63.4375 59.9174 63.4337H59.4704C59.4408 63.4409 59.4099 63.4419 59.3799 63.4366C59.3498 63.4314 59.3211 63.42 59.2956 63.4032C59.2701 63.3864 59.2483 63.3646 59.2316 63.3391C59.2149 63.3135 59.2036 63.2848 59.1984 63.2547H59.1994Z" fill="#101820"/>
<path d="M64.7085 63.3321C64.501 63.2504 64.3159 63.1205 64.1685 62.9531C64.0719 62.85 64.0109 62.7185 63.9945 62.5781C63.9934 62.5567 63.9968 62.5353 64.0046 62.5153C64.0123 62.4954 64.0242 62.4772 64.0395 62.4622C64.0698 62.4335 64.1098 62.4175 64.1515 62.4172H64.7365C64.7566 62.4177 64.7764 62.4233 64.7938 62.4334C64.8113 62.4436 64.826 62.4579 64.8365 62.4752L64.9975 62.6132C65.0825 62.6843 65.1793 62.7402 65.2835 62.7781C65.3977 62.8203 65.5187 62.8417 65.6405 62.8411C65.7965 62.8449 65.9507 62.8062 66.0865 62.7292C66.1423 62.6976 66.1884 62.6514 66.22 62.5955C66.2515 62.5397 66.2672 62.4763 66.2655 62.4121C66.2677 62.3268 66.2373 62.2438 66.1805 62.1802C66.0976 62.1038 65.9984 62.0474 65.8905 62.0151C65.6823 61.9472 65.4707 61.8905 65.2565 61.8451C64.9292 61.7957 64.621 61.66 64.3635 61.4522C64.2668 61.3639 64.1907 61.2554 64.1405 61.1344C64.0904 61.0135 64.0675 60.8829 64.0735 60.7521C64.0743 60.5585 64.1351 60.3699 64.2475 60.2122C64.3752 60.0292 64.5515 59.8855 64.7565 59.7972C65.0121 59.6838 65.2899 59.6288 65.5695 59.6361C65.8556 59.6297 66.14 59.6828 66.4045 59.7922C66.6075 59.8712 66.7894 59.9965 66.9355 60.1582C67.0384 60.26 67.103 60.3942 67.1185 60.5382C67.1178 60.5783 67.1017 60.6166 67.0735 60.6452C67.044 60.6756 67.0038 60.6932 66.9615 60.6941H66.4255C66.402 60.696 66.3784 60.6916 66.3572 60.6814C66.3359 60.6712 66.3178 60.6556 66.3045 60.6361C66.2471 60.5961 66.1932 60.5513 66.1435 60.5021C66.068 60.4396 65.9837 60.3884 65.8935 60.3502C65.7894 60.3106 65.6788 60.291 65.5675 60.2922C65.4228 60.2829 65.2794 60.3239 65.1615 60.4082C65.1148 60.4426 65.0774 60.488 65.0524 60.5403C65.0275 60.5926 65.0158 60.6503 65.0185 60.7082C65.0159 60.785 65.0395 60.8605 65.0855 60.9222C65.1599 60.9994 65.2539 61.055 65.3575 61.0832C65.5615 61.15 65.7705 61.2008 65.9825 61.2351C66.8398 61.4045 67.2685 61.7795 67.2685 62.3601C67.2694 62.5235 67.2289 62.6844 67.1509 62.828C67.073 62.9715 66.96 63.093 66.8225 63.1811C66.4574 63.4105 66.0298 63.5199 65.5995 63.4941C65.2944 63.5036 64.9907 63.4484 64.7085 63.3321Z" fill="#101820"/>
</svg>
