<svg width="58" height="58" viewBox="0 0 58 58" fill="none" xmlns="http://www.w3.org/2000/svg">
<path d="M28.9974 57.3715C28.7154 57.3715 28.4344 57.3665 28.1544 57.3585L33.9544 41.4235H41.9334C42.6706 41.3877 43.3826 41.1441 43.9873 40.7209C44.5919 40.2976 45.0645 39.7119 45.3504 39.0315L51.6414 21.7535C52.6704 18.9245 51.0504 16.6105 48.0414 16.6105H36.9684L27.6764 42.1325L22.4114 56.6005C16.2996 55.1395 10.8455 51.6912 6.90474 46.7964C2.96394 41.9016 0.759267 35.8372 0.636521 29.5544C0.513775 23.2716 2.47989 17.1257 6.22651 12.0808C9.97312 7.03579 15.2883 3.37708 21.3384 1.67848L15.9044 16.6095L6.87039 41.4225H12.8834L20.5654 20.3385H25.0844L17.4024 41.4235H23.4134L30.5714 21.7515C31.6014 18.9225 29.9804 16.6085 26.9714 16.6085H21.9184L27.7224 0.658479C28.1454 0.639479 28.5704 0.628479 28.9974 0.628479C36.522 0.628479 43.7384 3.61761 49.0591 8.9383C54.3798 14.259 57.3689 21.4754 57.3689 29C57.3689 36.5246 54.3798 43.741 49.0591 49.0617C43.7384 54.3823 36.522 57.3715 28.9974 57.3715ZM46.1644 20.3225H41.6464L35.3194 37.6785H39.8374L46.1644 20.3225Z" fill="#E63E3A"/>
</svg>
