<svg width="160" height="36" viewBox="0 0 160 36" fill="none" xmlns="http://www.w3.org/2000/svg">
<path d="M78.8988 8.40598C78.4097 8.13483 77.858 7.9969 77.2988 8.00598C75.6155 8.00598 74.7738 9.06831 74.7738 11.193V13.511H78.2988V15.55H74.7758V28.547H72.3668V15.554H69.8128V13.515H72.3668V11.078C72.3365 10.4026 72.4402 9.72787 72.6721 9.0928C72.904 8.45774 73.2594 7.87491 73.7178 7.37798C74.1592 6.91463 74.6934 6.54956 75.2855 6.30661C75.8775 6.06365 76.5142 5.94826 77.1538 5.96798C77.7477 5.94515 78.3406 6.03541 78.9008 6.23398V8.40598H78.8988ZM83.3388 8.12698C83.3444 8.33661 83.3054 8.54504 83.2243 8.73846C83.1433 8.93189 83.0221 9.1059 82.8688 9.24898C82.5679 9.53332 82.1703 9.69298 81.7563 9.69577C81.3423 9.69855 80.9426 9.54425 80.6378 9.26398C80.4861 9.11701 80.3672 8.93968 80.2888 8.74357C80.2104 8.54746 80.1743 8.33701 80.1828 8.12598C80.1803 7.92314 80.2186 7.72186 80.2954 7.5341C80.3722 7.34634 80.4859 7.17593 80.6298 7.03298C80.7744 6.88176 80.949 6.76245 81.1424 6.68272C81.3358 6.60298 81.5437 6.56458 81.7528 6.56998C81.9625 6.56432 82.171 6.60178 82.3656 6.68005C82.5601 6.75832 82.7365 6.87572 82.8838 7.02498C83.0307 7.16758 83.1469 7.33873 83.2251 7.52791C83.3034 7.71709 83.3421 7.92028 83.3388 8.12498M82.9298 28.541H80.5208V13.513H82.9288L82.9298 28.541ZM96.6698 27.853C95.4188 28.5804 93.9905 28.9463 92.5438 28.91C91.2509 28.9292 89.9762 28.6026 88.8518 27.964C87.7625 27.3341 86.8781 26.4032 86.3048 25.283C85.6867 24.0811 85.3745 22.7453 85.3958 21.394C85.2917 19.1939 86.0588 17.0414 87.5308 15.403C88.2654 14.6454 89.1522 14.0521 90.1329 13.6624C91.1135 13.2727 92.1656 13.0953 93.2198 13.142C94.4239 13.1178 95.6166 13.3796 96.6998 13.906V16.372C95.6576 15.6165 94.4051 15.206 93.1178 15.198C92.4011 15.1754 91.6884 15.3133 91.0318 15.6016C90.3752 15.8898 89.7913 16.3211 89.3228 16.864C88.3157 18.068 87.7943 19.6047 87.8608 21.173C87.7777 22.6842 88.2741 24.1701 89.2488 25.328C89.721 25.8373 90.2985 26.2375 90.9411 26.5009C91.5837 26.7643 92.276 26.8844 92.9698 26.853C94.3121 26.8433 95.6133 26.3889 96.6698 25.561V27.853ZM111.462 21.629H100.849C100.789 23.0467 101.27 24.4343 102.193 25.512C102.659 25.9716 103.217 26.3285 103.83 26.5596C104.443 26.7907 105.097 26.891 105.751 26.854C107.446 26.8571 109.09 26.2765 110.407 25.21V27.457C108.867 28.4922 107.033 29.0016 105.18 28.909C104.242 28.9607 103.303 28.8018 102.435 28.4439C101.566 28.0861 100.788 27.5384 100.158 26.841C98.8721 25.2109 98.2294 23.1655 98.3518 21.093C98.3333 19.684 98.6413 18.2899 99.2518 17.02C99.7984 15.855 100.66 14.8661 101.739 14.165C102.789 13.4918 104.013 13.1394 105.261 13.151C106.115 13.1048 106.968 13.2517 107.757 13.5806C108.546 13.9096 109.251 14.4121 109.82 15.051C110.994 16.567 111.576 18.4584 111.457 20.372V21.635L111.462 21.629ZM108.999 19.592C109.052 18.4281 108.696 17.2823 107.992 16.354C107.651 15.9659 107.226 15.6605 106.749 15.461C106.272 15.2614 105.757 15.1728 105.241 15.202C104.707 15.1942 104.177 15.2967 103.685 15.5032C103.192 15.7097 102.748 16.0157 102.379 16.402C101.55 17.2754 101.024 18.3925 100.879 19.588H108.999V19.592ZM129.782 22.587C129.812 23.4564 129.644 24.3212 129.291 25.1161C128.937 25.911 128.408 26.615 127.742 27.175C126.227 28.387 124.322 29.0053 122.384 28.914C120.712 28.998 119.05 28.601 117.597 27.77V25.185C118.98 26.2872 120.701 26.8781 122.47 26.858C123.74 26.9246 124.992 26.5368 126.002 25.764C126.434 25.4056 126.778 24.9522 127.006 24.4391C127.234 23.9259 127.34 23.367 127.317 22.806C127.317 20.0573 125.359 18.6826 121.445 18.682H119.699V16.641H121.357C124.823 16.641 126.557 15.349 126.557 12.765C126.557 10.377 125.235 9.18331 122.593 9.18398C121.069 9.19728 119.595 9.72597 118.41 10.684V8.34598C119.865 7.51525 121.52 7.10015 123.195 7.14598C124.725 7.07336 126.228 7.56756 127.416 8.53398C127.94 8.97951 128.356 9.53751 128.634 10.1664C128.912 10.7952 129.045 11.4788 129.022 12.166C129.022 14.9366 127.622 16.7183 124.822 17.511V17.569C126.173 17.6721 127.446 18.2432 128.422 19.184C128.87 19.6285 129.222 20.16 129.457 20.7458C129.691 21.3315 129.804 21.9592 129.787 22.59M145.626 21.871C145.643 23.1316 145.348 24.3768 144.768 25.496C144.232 26.5448 143.409 27.4203 142.396 28.021C141.369 28.6252 140.197 28.9365 139.006 28.921C138.032 28.9524 137.067 28.7358 136.2 28.2917C135.334 27.8476 134.594 27.1904 134.051 26.382C132.734 24.2599 132.106 21.783 132.251 19.29C132.211 17.1169 132.572 14.9551 133.316 12.913C133.9 11.2358 134.943 9.75585 136.326 8.64098C137.615 7.64554 139.204 7.11675 140.833 7.14098C142.029 7.09302 143.221 7.29746 144.333 7.74098V10.022C143.272 9.47009 142.093 9.18293 140.897 9.18498C139.998 9.17587 139.113 9.40178 138.329 9.84032C137.545 10.2789 136.889 10.9148 136.427 11.685C135.215 13.6918 134.629 16.0145 134.745 18.356H134.804C135.206 17.4298 135.88 16.6482 136.738 16.1155C137.596 15.5829 138.595 15.3245 139.604 15.375C140.419 15.3399 141.231 15.4811 141.986 15.789C142.741 16.0969 143.421 16.5642 143.979 17.159C145.114 18.454 145.703 20.1386 145.623 21.859M143.157 22.167C143.226 20.9151 142.843 19.6801 142.078 18.687C141.705 18.2593 141.239 17.9222 140.716 17.7012C140.194 17.4803 139.628 17.3814 139.061 17.412C138.507 17.4004 137.958 17.5048 137.447 17.7183C136.936 17.9319 136.475 18.2499 136.095 18.652C135.704 19.0463 135.397 19.515 135.191 20.0303C134.984 20.5456 134.884 21.0971 134.895 21.652C134.849 22.9896 135.274 24.3009 136.095 25.358C136.444 25.8056 136.887 26.171 137.393 26.4283C137.899 26.6855 138.456 26.8283 139.023 26.8465C139.59 26.8647 140.155 26.7579 140.676 26.5337C141.198 26.3095 141.664 25.9733 142.041 25.549C142.818 24.5977 143.218 23.3933 143.163 22.166M159.796 22.107C159.834 23.0274 159.671 23.945 159.321 24.7967C158.97 25.6485 158.439 26.4141 157.764 27.041C156.261 28.3354 154.318 29.0021 152.338 28.903C150.832 29.0035 149.328 28.7 147.979 28.024V25.478C149.275 26.358 150.8 26.8382 152.367 26.859C153.683 26.9212 154.972 26.4739 155.967 25.61C156.423 25.1847 156.782 24.6653 157.018 24.0878C157.254 23.5102 157.362 22.8883 157.334 22.265C157.364 21.6581 157.255 21.0523 157.016 20.4937C156.777 19.9351 156.414 19.4382 155.954 19.041C154.798 18.1899 153.378 17.7767 151.947 17.875C150.755 17.8639 149.564 17.922 148.379 18.049L149.098 7.49498H158.832V9.66698H151.169L150.744 15.847L152.682 15.772C154.56 15.6675 156.412 16.2588 157.882 17.433C158.529 18.0222 159.035 18.7484 159.366 19.5587C159.696 20.3689 159.841 21.2426 159.79 22.116M29.4918 32.632V3.45698L19.0358 0.440979L0.245822 7.49598L0.198822 7.50598V28.6L6.61082 26.09V8.92798L19.0338 5.95798V31.192L0.211822 28.6L19.0348 35.551V35.559L29.4888 32.665V32.632H29.4918Z" fill="#E63E3A"/>
<path d="M60.1398 17.7708C60.1849 19.8264 59.7612 21.8653 58.9008 23.7328C58.1333 25.3736 56.8915 26.7467 55.3358 27.6748C53.7111 28.6155 51.8599 29.0935 49.9828 29.0568C48.1597 29.0886 46.3622 28.624 44.7828 27.7128C43.2589 26.8134 42.0328 25.4861 41.2568 23.8958C40.4037 22.1541 39.9759 20.2349 40.0088 18.2958C39.9661 16.2449 40.3984 14.2119 41.2718 12.3558C42.0544 10.7069 43.3169 9.33286 44.8938 8.41379C46.559 7.47419 48.4463 6.99962 50.3578 7.03979C52.1456 7.01236 53.9062 7.47993 55.4448 8.39079C56.9463 9.29435 58.1532 10.6145 58.9188 12.1908C59.7594 13.93 60.179 15.8425 60.1438 17.7738M57.5308 18.1008C57.6708 15.7758 56.9817 13.4764 55.5858 11.6118C54.9211 10.8342 54.0868 10.2197 53.1471 9.81558C52.2074 9.41144 51.1874 9.22847 50.1658 9.28079C48.7817 9.26077 47.4217 9.64515 46.2528 10.3868C45.0747 11.1531 44.1436 12.244 43.5718 13.5278C42.9241 14.9536 42.5997 16.5049 42.6218 18.0708C42.5937 19.6364 42.9055 21.1894 43.5358 22.6228C44.0837 23.8834 44.9872 24.9569 46.1358 25.7118C47.6078 26.5996 49.3374 26.9616 51.0418 26.7387C52.7463 26.5158 54.3247 25.7212 55.5188 24.4848C56.9428 22.6713 57.6542 20.3996 57.5188 18.0978M70.8378 8.31279C70.3421 8.03999 69.7835 7.90207 69.2178 7.91279C67.5152 7.91279 66.6638 8.98746 66.6638 11.1368V13.4818H70.2278V15.5448H66.6638V28.6848H64.2278V15.5428H61.6438V13.4798H64.2278V11.0148C64.1973 10.3318 64.3023 9.64947 64.5367 9.00723C64.7712 8.36498 65.1305 7.77551 65.5938 7.27279C66.0405 6.80417 66.5809 6.43496 67.1798 6.18926C67.7788 5.94355 68.4228 5.82685 69.0698 5.84679C69.6705 5.82383 70.2702 5.91511 70.8368 6.11579V8.31579L70.8378 8.31279Z" fill="#E63E3A"/>
</svg>
