<svg width="86" height="26" viewBox="0 0 86 26" fill="none" xmlns="http://www.w3.org/2000/svg">
<path d="M23.7495 16.4106C22.3262 16.3601 20.9646 15.8169 19.8975 14.8736L20.1835 13.5296L20.1955 13.4796C20.4505 12.0486 21.2595 9.64662 23.7485 9.64662C24.6455 9.64662 25.5057 10.0029 26.1399 10.6372C26.7742 11.2714 27.1305 12.1317 27.1305 13.0286C27.1305 13.9256 26.7742 14.7858 26.1399 15.4201C25.5057 16.0543 24.6455 16.4106 23.7485 16.4106H23.7495ZM23.7495 6.21862C20.5695 6.21862 18.1055 8.28462 17.1035 11.6816C15.6285 9.40017 14.4936 6.91611 13.7345 4.30762H10.3145V13.2076C10.3145 14.0526 9.97884 14.863 9.38135 15.4605C8.78386 16.058 7.97349 16.3936 7.12851 16.3936C6.28353 16.3936 5.47316 16.058 4.87567 15.4605C4.27817 14.863 3.94251 14.0526 3.94251 13.2076V4.30762H0.520508V13.2076C0.520508 14.9603 1.21676 16.6412 2.45609 17.8805C3.69543 19.1199 5.37632 19.8161 7.12901 19.8161C8.88169 19.8161 10.5626 19.1199 11.8019 17.8805C13.0413 16.6412 13.7375 14.9603 13.7375 13.2076V11.7186C14.4088 13.1501 15.2372 14.5024 16.2075 15.7506L14.1075 25.6066H17.6075L19.1255 18.4566C20.4965 19.3589 22.1012 19.8413 23.7425 19.8446C25.5353 19.8229 27.2472 19.0955 28.5073 17.8201C29.7673 16.5447 30.474 14.824 30.474 13.0311C30.474 11.2382 29.7673 9.51758 28.5073 8.24216C27.2472 6.96675 25.5353 6.23934 23.7425 6.21762L23.7495 6.21862Z" fill="#919496"/>
<path d="M41.0035 6.60355L43.2125 15.5036L45.6455 6.60355H48.5455L44.8055 19.4716H41.9055L39.6055 10.5116L37.3155 19.4656H34.4155L30.6805 6.59755H33.5805L36.0135 15.4976L38.2225 6.59755H41.0035V6.60355ZM55.4835 6.21755C54.1361 6.21874 52.8193 6.61938 51.6995 7.36884C50.5798 8.11829 49.7073 9.18291 49.1925 10.4281C48.6777 11.6733 48.5436 13.0432 48.8072 14.3646C49.0708 15.686 49.7202 16.8995 50.6734 17.8519C51.6266 18.8043 52.8408 19.4526 54.1624 19.7151C55.484 19.9775 56.8538 19.8422 58.0985 19.3263C59.3433 18.8104 60.4071 17.937 61.1556 16.8166C61.9041 15.6962 62.3035 14.379 62.3035 13.0316C62.3034 12.1363 62.1269 11.2498 61.784 10.4227C61.4412 9.59567 60.9387 8.84429 60.3054 8.2115C59.672 7.57871 58.9202 7.07691 58.0928 6.73478C57.2655 6.39265 56.3788 6.2169 55.4835 6.21755ZM55.4835 17.0446C54.691 17.0446 53.9163 16.8095 53.2574 16.3693C52.5984 15.929 52.0848 15.3032 51.7816 14.571C51.4783 13.8388 51.3989 13.0331 51.5535 12.2558C51.7081 11.4785 52.0898 10.7646 52.6502 10.2042C53.2106 9.64379 53.9245 9.26216 54.7018 9.10755C55.4791 8.95294 56.2848 9.03229 57.017 9.33557C57.7491 9.63885 58.375 10.1524 58.8152 10.8114C59.2555 11.4703 59.4905 12.245 59.4905 13.0376C59.4913 13.5639 59.3882 14.0853 59.1871 14.5718C58.986 15.0582 58.6909 15.5002 58.3186 15.8723C57.9464 16.2445 57.5043 16.5395 57.0178 16.7405C56.5313 16.9415 56.0099 17.0445 55.4835 17.0436V17.0446ZM70.5835 9.48456C69.6495 9.48482 68.7538 9.85597 68.0934 10.5164C67.433 11.1769 67.0618 12.0725 67.0615 13.0066V19.4656H64.1425V6.60355H67.0615V8.58255C67.4901 7.97203 68.0589 7.47316 68.7201 7.12778C69.3812 6.7824 70.1156 6.60058 70.8615 6.59755H71.7615V9.48456H70.5855H70.5835ZM80.3775 12.5336C81.4314 11.9412 82.3088 11.0793 82.9199 10.0363C83.531 8.9932 83.8539 7.80645 83.8555 6.59755H80.9365C80.9363 7.6289 80.5265 8.61793 79.7972 9.3472C79.0679 10.0765 78.0789 10.4863 77.0475 10.4866H76.6555V0.393555H73.7405V19.4656H76.6585V13.4056H77.0075C77.1669 13.4141 77.3227 13.4556 77.4652 13.5273C77.6077 13.5991 77.7338 13.6996 77.8355 13.8226L81.9795 19.4666H85.4795L80.3795 12.5346L80.3775 12.5336Z" fill="#101820"/>
</svg>
