<svg width="22" height="18" viewBox="0 0 22 18" fill="none" xmlns="http://www.w3.org/2000/svg">
<path d="M3.95898 10.2284C6.50998 10.2284 7.82098 8.19244 7.82098 5.28944C7.82098 2.38644 6.50998 0.35144 3.95898 0.35144C1.43098 0.35144 0.138977 2.38744 0.138977 5.28944C0.138977 8.19144 1.43098 10.2284 3.95898 10.2284ZM3.95898 8.94144C2.64798 8.94144 1.92298 7.63044 1.92298 5.29044C1.92298 2.95044 2.64898 1.61544 3.95898 1.61544C5.33998 1.61544 6.04198 2.94944 6.04198 5.29044C6.04198 7.63144 5.33898 8.94144 3.95898 8.94144ZM6.29898 17.4844L17.999 0.514441H15.639L3.93898 17.4844H6.29898ZM17.999 17.6484C20.55 17.6484 21.861 15.6124 21.861 12.7094C21.861 9.80644 20.55 7.77044 17.999 7.77044C15.471 7.77044 14.184 9.80644 14.184 12.7094C14.184 15.6124 15.475 17.6484 18.003 17.6484H17.999ZM17.999 16.3614C16.688 16.3614 15.963 15.0504 15.963 12.7104C15.963 10.3704 16.689 9.03544 17.999 9.03544C19.38 9.03544 20.082 10.3694 20.082 12.7104C20.082 15.0514 19.384 16.3614 18.003 16.3614H17.999Z" fill="#E63E3A"/>
</svg>
